# File exported by Houdini 20.5.654 (www.sidefx.com)
# 40 points
# 210 vertices
# 67 primitives
# Bounds: [0.120000005, 0.150000006, 0] to [1.40551734, 1.6500001, 0.859999955]
g 
v 0.120000005 0.150000006 0.800000012
v 1.26727927 1.6500001 0.0351472013
v 1.26727927 0.150000006 0.0351472013
v 0.120000005 1.6500001 0.800000012
v 1.28498161 1.6500001 0.0247976072
v 1.28498161 0.150000006 0.0247976072
v 1.3045584 1.6500001 0.0160768032
v 1.3045584 0.150000006 0.0160768032
v 1.32567608 1.6500001 0.0091343997
v 1.32567608 0.150000006 0.0091343997
v 1.34797084 1.6500001 0.00408880739
v 1.34797084 0.150000006 0.00408880739
v 1.37106359 1.6500001 0.00102640397
v 1.37106359 0.150000006 0.00102640397
v 1.39455843 1.6500001 0
v 1.39455843 0.150000006 0
v 1.39455843 0.150000006 0.0600000024
v 1.37106359 1.6500001 0.0610264055
v 1.37106359 0.150000006 0.0610264055
v 1.39455843 1.6500001 0.0600000024
v 1.34797084 1.6500001 0.0640887991
v 1.34797084 0.150000006 0.0640887991
v 1.32567608 1.6500001 0.0691344067
v 1.32567608 0.150000006 0.0691344067
v 1.3045584 1.6500001 0.0760768056
v 1.3045584 0.150000006 0.0760768056
v 1.28498161 1.6500001 0.0847976133
v 1.28498161 0.150000006 0.0847976133
v 1.26727927 1.6500001 0.0951472074
v 1.26727927 0.150000006 0.0951472074
v 0.120000005 1.6500001 0.859999955
v 0.120000005 0.150000006 0.859999955
v 1.40551734 0.150000006 0
v 1.40551734 0.164606154 0
v 1.40551734 1.6500001 0
v 1.40551734 1.63539398 0.0600000024
v 1.40551734 0.150000006 0.0600000024
v 1.40551734 1.6500001 0.0600000024
v 1.40551734 0.150000006 0.000584245892
v 1.40551734 1.6500001 0.000584245892
g 
f 1 3 2
f 1 2 4
f 3 6 5
f 3 5 2
f 6 8 7
f 6 7 5
f 8 10 9
f 8 9 7
f 10 12 11
f 10 11 9
f 12 14 13
f 12 13 11
f 14 16 15
f 14 15 13
f 17 19 18
f 17 18 20
f 19 22 21
f 19 21 18
f 22 24 23
f 22 23 21
f 24 26 25
f 24 25 23
f 26 28 27
f 26 27 25
f 28 30 29
f 28 29 27
f 30 32 31
f 30 31 29
f 32 1 4
f 32 4 31
f 32 3 1
f 32 6 3
f 32 8 6
f 32 10 8
f 32 12 10
f 32 14 12
f 32 16 14
f 16 19 17
f 16 22 19
f 16 24 22
f 16 26 24
f 16 28 26
f 16 30 28
f 16 32 30
f 31 4 2
f 31 2 5
f 31 5 7
f 31 7 9
f 31 9 11
f 31 11 13
f 31 13 15
f 15 20 18
f 15 18 21
f 15 21 23
f 15 23 25
f 15 25 27
f 15 27 29
f 15 29 31
f 33 34 16
f 35 15 16 34
f 36 37 17 20
f 38 36 20
f 39 33 16
f 17 37 39 16
f 15 35 40
f 20 15 40 38
f 34 33 39 37 36 38 40 35
