# File exported by Houdini 20.5.654 (www.sidefx.com)
# 12 points
# 42 vertices
# 11 primitives
# Bounds: [1.40551734, 0.150000006, 0] to [2.51999998, 1.6500001, 0.0600000024]
g 
v 2.51999998 1.6500001 0.0600000024
v 2.51999998 0.150000006 0
v 2.51999998 0.150000006 0.0600000024
v 2.51999998 1.6500001 0
v 1.40551734 0.164606154 0
v 1.40551734 0.150000006 0
v 1.40551734 1.6500001 0
v 1.40551734 1.63539398 0.0600000024
v 1.40551734 0.150000006 0.0600000024
v 1.40551734 1.6500001 0.0600000024
v 1.40551734 0.150000006 0.000584245892
v 1.40551734 1.6500001 0.000584245892
g 
f 1 3 2
f 4 1 2
f 5 4 2 6
f 7 4 5
f 8 9 3
f 3 1 10 8
f 6 2 3 11
f 9 11 3
f 12 1 4 7
f 1 12 10
f 5 6 11 9 8 10 12 7
