# File exported by Houdini 20.5.654 (www.sidefx.com)
# 36 points
# 204 vertices
# 68 primitives
# Bounds: [0.120000005, 0.150000006, 0] to [2.51999998, 1.6500001, 0.859999955]
g 
v 0.120000005 0.150000006 0.800000012
v 1.26727927 0.150000006 0.0351472013
v 1.28498161 0.150000006 0.0247976072
v 1.3045584 0.150000006 0.0160768032
v 1.32567608 0.150000006 0.0091343997
v 1.34797084 0.150000006 0.00408880739
v 1.37106359 0.150000006 0.00102640397
v 1.39455843 0.150000006 0
v 2.51999998 0.150000006 0
v 2.51999998 0.150000006 0.0600000024
v 1.39455843 0.150000006 0.0600000024
v 1.37106359 0.150000006 0.0610264055
v 1.34797084 0.150000006 0.0640887991
v 1.32567608 0.150000006 0.0691344067
v 1.3045584 0.150000006 0.0760768056
v 1.28498161 0.150000006 0.0847976133
v 1.26727927 0.150000006 0.0951472074
v 0.120000005 0.150000006 0.859999955
v 0.120000005 1.6500001 0.800000012
v 1.26727927 1.6500001 0.0351472013
v 1.28498161 1.6500001 0.0247976072
v 1.3045584 1.6500001 0.0160768032
v 1.32567608 1.6500001 0.0091343997
v 1.34797084 1.6500001 0.00408880739
v 1.37106359 1.6500001 0.00102640397
v 1.39455843 1.6500001 0
v 2.51999998 1.6500001 0
v 2.51999998 1.6500001 0.0600000024
v 1.39455843 1.6500001 0.0600000024
v 1.37106359 1.6500001 0.0610264055
v 1.34797084 1.6500001 0.0640887991
v 1.32567608 1.6500001 0.0691344067
v 1.3045584 1.6500001 0.0760768056
v 1.28498161 1.6500001 0.0847976133
v 1.26727927 1.6500001 0.0951472074
v 0.120000005 1.6500001 0.859999955
g 
f 1 2 20
f 1 20 19
f 2 3 21
f 2 21 20
f 3 4 22
f 3 22 21
f 4 5 23
f 4 23 22
f 5 6 24
f 5 24 23
f 6 7 25
f 6 25 24
f 7 8 26
f 7 26 25
f 8 9 27
f 8 27 26
f 9 10 28
f 9 28 27
f 10 11 29
f 10 29 28
f 11 12 30
f 11 30 29
f 12 13 31
f 12 31 30
f 13 14 32
f 13 32 31
f 14 15 33
f 14 33 32
f 15 16 34
f 15 34 33
f 16 17 35
f 16 35 34
f 17 18 36
f 17 36 35
f 18 1 19
f 18 19 36
f 18 2 1
f 18 3 2
f 18 4 3
f 18 5 4
f 18 6 5
f 18 7 6
f 18 8 7
f 8 10 9
f 8 11 10
f 8 12 11
f 8 13 12
f 8 14 13
f 8 15 14
f 8 16 15
f 8 17 16
f 8 18 17
f 36 19 20
f 36 20 21
f 36 21 22
f 36 22 23
f 36 23 24
f 36 24 25
f 36 25 26
f 26 27 28
f 26 28 29
f 26 29 30
f 26 30 31
f 26 31 32
f 26 32 33
f 26 33 34
f 26 34 35
f 26 35 36
